<?xml version="1.0" encoding="UTF-8" standalone="no"?>
<!DOCTYPE svg PUBLIC "-//W3C//DTD SVG 1.1//EN"
 "http://www.w3.org/Graphics/SVG/1.1/DTD/svg11.dtd">
<!-- Generated by graphviz version 2.38.0 (20140413.2041)
 -->
<!-- Title: G Pages: 1 -->
<svg width="818pt" height="3079pt"
 viewBox="0.00 0.00 818.39 3079.08" xmlns="http://www.w3.org/2000/svg" xmlns:xlink="http://www.w3.org/1999/xlink">
<g id="graph0" class="graph" transform="scale(1 1) rotate(0) translate(4 3075.08)">
<title>G</title>
<polygon fill="white" stroke="none" points="-4,4 -4,-3075.08 814.388,-3075.08 814.388,4 -4,4"/>
<g id="clust1" class="cluster"><title>cluster_Global</title>
<path fill="none" stroke="gray" d="M200.388,-87.0792C200.388,-87.0792 790.388,-87.0792 790.388,-87.0792 796.388,-87.0792 802.388,-93.0792 802.388,-99.0792 802.388,-99.0792 802.388,-3051.08 802.388,-3051.08 802.388,-3057.08 796.388,-3063.08 790.388,-3063.08 790.388,-3063.08 200.388,-3063.08 200.388,-3063.08 194.388,-3063.08 188.388,-3057.08 188.388,-3051.08 188.388,-3051.08 188.388,-99.0792 188.388,-99.0792 188.388,-93.0792 194.388,-87.0792 200.388,-87.0792"/>
<text text-anchor="middle" x="495.388" y="-3050.28" font-family="Times New Roman,serif" font-size="11.00" fill="gray">Global</text>
</g>
<g id="clust2" class="cluster"><title>cluster_\Elab</title>
<path fill="none" stroke="gray" d="M208.388,-95.0792C208.388,-95.0792 782.388,-95.0792 782.388,-95.0792 788.388,-95.0792 794.388,-101.079 794.388,-107.079 794.388,-107.079 794.388,-3023.08 794.388,-3023.08 794.388,-3029.08 788.388,-3035.08 782.388,-3035.08 782.388,-3035.08 208.388,-3035.08 208.388,-3035.08 202.388,-3035.08 196.388,-3029.08 196.388,-3023.08 196.388,-3023.08 196.388,-107.079 196.388,-107.079 196.388,-101.079 202.388,-95.0792 208.388,-95.0792"/>
<text text-anchor="middle" x="495.388" y="-3022.28" font-family="Times New Roman,serif" font-size="11.00" fill="gray">Elab</text>
</g>
<g id="clust3" class="cluster"><title>cluster_\Elab\Csmp</title>
<path fill="none" stroke="gray" d="M216.388,-103.079C216.388,-103.079 774.388,-103.079 774.388,-103.079 780.388,-103.079 786.388,-109.079 786.388,-115.079 786.388,-115.079 786.388,-2995.08 786.388,-2995.08 786.388,-3001.08 780.388,-3007.08 774.388,-3007.08 774.388,-3007.08 216.388,-3007.08 216.388,-3007.08 210.388,-3007.08 204.388,-3001.08 204.388,-2995.08 204.388,-2995.08 204.388,-115.079 204.388,-115.079 204.388,-109.079 210.388,-103.079 216.388,-103.079"/>
<text text-anchor="middle" x="495.388" y="-2994.28" font-family="Times New Roman,serif" font-size="11.00" fill="gray">Csmp</text>
</g>
<g id="clust4" class="cluster"><title>cluster_\Elab\Csmp\Blocks</title>
<path fill="none" stroke="gray" d="M619.388,-479.079C619.388,-479.079 742.388,-479.079 742.388,-479.079 748.388,-479.079 754.388,-485.079 754.388,-491.079 754.388,-491.079 754.388,-2159.08 754.388,-2159.08 754.388,-2165.08 748.388,-2171.08 742.388,-2171.08 742.388,-2171.08 619.388,-2171.08 619.388,-2171.08 613.388,-2171.08 607.388,-2165.08 607.388,-2159.08 607.388,-2159.08 607.388,-491.079 607.388,-491.079 607.388,-485.079 613.388,-479.079 619.388,-479.079"/>
<text text-anchor="middle" x="680.888" y="-2158.28" font-family="Times New Roman,serif" font-size="11.00" fill="gray">Blocks</text>
</g>
<g id="clust6" class="cluster"><title>cluster_\Elab\Csmp\Exceptions</title>
<path fill="none" stroke="gray" d="M419.388,-2179.08C419.388,-2179.08 762.888,-2179.08 762.888,-2179.08 768.888,-2179.08 774.888,-2185.08 774.888,-2191.08 774.888,-2191.08 774.888,-2563.08 774.888,-2563.08 774.888,-2569.08 768.888,-2575.08 762.888,-2575.08 762.888,-2575.08 419.388,-2575.08 419.388,-2575.08 413.388,-2575.08 407.388,-2569.08 407.388,-2563.08 407.388,-2563.08 407.388,-2191.08 407.388,-2191.08 407.388,-2185.08 413.388,-2179.08 419.388,-2179.08"/>
<text text-anchor="middle" x="591.138" y="-2562.28" font-family="Times New Roman,serif" font-size="11.00" fill="gray">Exceptions</text>
</g>
<g id="clust5" class="cluster"><title>cluster_\Elab\Csmp\Methods</title>
<path fill="none" stroke="gray" d="M629.388,-2583.08C629.388,-2583.08 732.388,-2583.08 732.388,-2583.08 738.388,-2583.08 744.388,-2589.08 744.388,-2595.08 744.388,-2595.08 744.388,-2967.08 744.388,-2967.08 744.388,-2973.08 738.388,-2979.08 732.388,-2979.08 732.388,-2979.08 629.388,-2979.08 629.388,-2979.08 623.388,-2979.08 617.388,-2973.08 617.388,-2967.08 617.388,-2967.08 617.388,-2595.08 617.388,-2595.08 617.388,-2589.08 623.388,-2583.08 629.388,-2583.08"/>
<text text-anchor="middle" x="680.888" y="-2966.28" font-family="Times New Roman,serif" font-size="11.00" fill="gray">Methods</text>
</g>
<g id="clust7" class="cluster"><title>cluster_\Elab\Csmp\Factories</title>
<path fill="none" stroke="gray" d="M595.388,-345.079C595.388,-345.079 766.388,-345.079 766.388,-345.079 772.388,-345.079 778.388,-351.079 778.388,-357.079 778.388,-357.079 778.388,-459.079 778.388,-459.079 778.388,-465.079 772.388,-471.079 766.388,-471.079 766.388,-471.079 595.388,-471.079 595.388,-471.079 589.388,-471.079 583.388,-465.079 583.388,-459.079 583.388,-459.079 583.388,-357.079 583.388,-357.079 583.388,-351.079 589.388,-345.079 595.388,-345.079"/>
<text text-anchor="middle" x="680.888" y="-458.279" font-family="Times New Roman,serif" font-size="11.00" fill="gray">Factories</text>
</g>
<g id="clust8" class="cluster"><title>cluster_\Elab\Csmp\helpers</title>
<path fill="none" stroke="gray" d="M652.888,-265.079C652.888,-265.079 708.888,-265.079 708.888,-265.079 714.888,-265.079 720.888,-271.079 720.888,-277.079 720.888,-277.079 720.888,-325.079 720.888,-325.079 720.888,-331.079 714.888,-337.079 708.888,-337.079 708.888,-337.079 652.888,-337.079 652.888,-337.079 646.888,-337.079 640.888,-331.079 640.888,-325.079 640.888,-325.079 640.888,-277.079 640.888,-277.079 640.888,-271.079 646.888,-265.079 652.888,-265.079"/>
<text text-anchor="middle" x="680.888" y="-324.279" font-family="Times New Roman,serif" font-size="11.00" fill="gray">helpers</text>
</g>
<!-- \\Elab\\Csmp\\Blocks\\Sign -->
<g id="node1" class="node"><title>\\Elab\\Csmp\\Blocks\\Sign</title>
<polygon fill="none" stroke="black" points="707.888,-2143.08 653.888,-2143.08 653.888,-2107.08 707.888,-2107.08 707.888,-2143.08"/>
<text text-anchor="middle" x="680.888" y="-2122.28" font-family="Courier,monospace" font-size="11.00">Sign</text>
</g>
<!-- \\Elab\\Csmp\\Block -->
<g id="node52" class="node"><title>\\Elab\\Csmp\\Block</title>
<polygon fill="none" stroke="black" points="509.388,-1306.08 425.388,-1306.08 425.388,-1270.08 509.388,-1270.08 509.388,-1306.08"/>
<text text-anchor="start" x="433.388" y="-1291.28" font-family="Courier,monospace" font-size="11.00">«abstract»</text>
<text text-anchor="start" x="450.388" y="-1279.28" font-family="Courier,monospace" font-size="11.00">Block</text>
</g>
<!-- \\Elab\\Csmp\\Blocks\\Sign&#45;&gt;\\Elab\\Csmp\\Block -->
<g id="edge1" class="edge"><title>\\Elab\\Csmp\\Blocks\\Sign&#45;&gt;\\Elab\\Csmp\\Block</title>
<path fill="none" stroke="black" d="M653.677,-2125.18C631.567,-2123.76 600.814,-2117.97 583.388,-2098.08 478.338,-1978.19 469.094,-1445.84 468.41,-1316.48"/>
<polygon fill="none" stroke="black" points="471.91,-1316.2 468.37,-1306.21 464.91,-1316.23 471.91,-1316.2"/>
</g>
<!-- \\Elab\\Csmp\\Blocks\\FunctionGenerator -->
<g id="node2" class="node"><title>\\Elab\\Csmp\\Blocks\\FunctionGenerator</title>
<polygon fill="none" stroke="black" points="746.388,-2089.08 615.388,-2089.08 615.388,-2053.08 746.388,-2053.08 746.388,-2089.08"/>
<text text-anchor="middle" x="680.888" y="-2068.28" font-family="Courier,monospace" font-size="11.00">FunctionGenerator</text>
</g>
<!-- \\Elab\\Csmp\\Blocks\\FunctionGenerator&#45;&gt;\\Elab\\Csmp\\Block -->
<g id="edge2" class="edge"><title>\\Elab\\Csmp\\Blocks\\FunctionGenerator&#45;&gt;\\Elab\\Csmp\\Block</title>
<path fill="none" stroke="black" d="M615.356,-2063.99C603.267,-2059.87 591.804,-2053.59 583.388,-2044.08 485.169,-1933.1 470.799,-1440.69 468.73,-1316.56"/>
<polygon fill="none" stroke="black" points="472.226,-1316.3 468.574,-1306.35 465.227,-1316.4 472.226,-1316.3"/>
</g>
<!-- \\Elab\\Csmp\\Blocks\\PositiveLimiter -->
<g id="node3" class="node"><title>\\Elab\\Csmp\\Blocks\\PositiveLimiter</title>
<polygon fill="none" stroke="black" points="739.888,-2035.08 621.888,-2035.08 621.888,-1999.08 739.888,-1999.08 739.888,-2035.08"/>
<text text-anchor="middle" x="680.888" y="-2014.28" font-family="Courier,monospace" font-size="11.00">PositiveLimiter</text>
</g>
<!-- \\Elab\\Csmp\\Blocks\\PositiveLimiter&#45;&gt;\\Elab\\Csmp\\Block -->
<g id="edge3" class="edge"><title>\\Elab\\Csmp\\Blocks\\PositiveLimiter&#45;&gt;\\Elab\\Csmp\\Block</title>
<path fill="none" stroke="black" d="M621.692,-2011.85C607.367,-2007.85 593.309,-2001.16 583.388,-1990.08 491.924,-1887.91 472.607,-1434.76 469.092,-1316.43"/>
<polygon fill="none" stroke="black" points="472.589,-1316.24 468.808,-1306.34 465.592,-1316.44 472.589,-1316.24"/>
</g>
<!-- \\Elab\\Csmp\\Blocks\\Integrator -->
<g id="node4" class="node"><title>\\Elab\\Csmp\\Blocks\\Integrator</title>
<polygon fill="none" stroke="black" points="722.888,-1981.08 638.888,-1981.08 638.888,-1945.08 722.888,-1945.08 722.888,-1981.08"/>
<text text-anchor="middle" x="680.888" y="-1960.28" font-family="Courier,monospace" font-size="11.00">Integrator</text>
</g>
<!-- \\Elab\\Csmp\\Blocks\\Integrator&#45;&gt;\\Elab\\Csmp\\Block -->
<g id="edge6" class="edge"><title>\\Elab\\Csmp\\Blocks\\Integrator&#45;&gt;\\Elab\\Csmp\\Block</title>
<path fill="none" stroke="black" d="M638.509,-1961.33C619.128,-1958.32 597.298,-1951.41 583.388,-1936.08 498.687,-1842.72 474.562,-1428.89 469.515,-1316.39"/>
<polygon fill="none" stroke="black" points="473.002,-1316.02 469.073,-1306.18 466.009,-1316.32 473.002,-1316.02"/>
</g>
<!-- \\Elab\\Csmp\\Blocks\\Exp -->
<g id="node5" class="node"><title>\\Elab\\Csmp\\Blocks\\Exp</title>
<polygon fill="none" stroke="black" points="707.888,-1927.08 653.888,-1927.08 653.888,-1891.08 707.888,-1891.08 707.888,-1927.08"/>
<text text-anchor="middle" x="680.888" y="-1906.28" font-family="Courier,monospace" font-size="11.00">Exp</text>
</g>
<!-- \\Elab\\Csmp\\Blocks\\Exp&#45;&gt;\\Elab\\Csmp\\Block -->
<g id="edge8" class="edge"><title>\\Elab\\Csmp\\Blocks\\Exp&#45;&gt;\\Elab\\Csmp\\Block</title>
<path fill="none" stroke="black" d="M653.487,-1908.93C631.565,-1907.32 601.19,-1901.4 583.388,-1882.08 505.441,-1797.5 476.696,-1422.93 470.015,-1316.42"/>
<polygon fill="none" stroke="black" points="473.491,-1315.91 469.388,-1306.14 466.504,-1316.34 473.491,-1315.91"/>
</g>
<!-- \\Elab\\Csmp\\Blocks\\Quit -->
<g id="node6" class="node"><title>\\Elab\\Csmp\\Blocks\\Quit</title>
<polygon fill="none" stroke="black" points="707.888,-1873.08 653.888,-1873.08 653.888,-1837.08 707.888,-1837.08 707.888,-1873.08"/>
<text text-anchor="middle" x="680.888" y="-1852.28" font-family="Courier,monospace" font-size="11.00">Quit</text>
</g>
<!-- \\Elab\\Csmp\\Blocks\\Quit&#45;&gt;\\Elab\\Csmp\\Block -->
<g id="edge9" class="edge"><title>\\Elab\\Csmp\\Blocks\\Quit&#45;&gt;\\Elab\\Csmp\\Block</title>
<path fill="none" stroke="black" d="M653.577,-1854.84C631.712,-1853.18 601.369,-1847.23 583.388,-1828.08 512.164,-1752.22 479.034,-1416.63 470.612,-1316.43"/>
<polygon fill="none" stroke="black" points="474.077,-1315.85 469.768,-1306.17 467.1,-1316.43 474.077,-1315.85"/>
</g>
<!-- \\Elab\\Csmp\\Blocks\\Multiply -->
<g id="node7" class="node"><title>\\Elab\\Csmp\\Blocks\\Multiply</title>
<polygon fill="none" stroke="black" points="716.388,-1819.08 645.388,-1819.08 645.388,-1783.08 716.388,-1783.08 716.388,-1819.08"/>
<text text-anchor="middle" x="680.888" y="-1798.28" font-family="Courier,monospace" font-size="11.00">Multiply</text>
</g>
<!-- \\Elab\\Csmp\\Blocks\\Multiply&#45;&gt;\\Elab\\Csmp\\Block -->
<g id="edge10" class="edge"><title>\\Elab\\Csmp\\Blocks\\Multiply&#45;&gt;\\Elab\\Csmp\\Block</title>
<path fill="none" stroke="black" d="M645.094,-1799.87C624.453,-1797.3 599.294,-1790.64 583.388,-1774.08 518.83,-1706.86 481.598,-1409.79 471.326,-1316.33"/>
<polygon fill="none" stroke="black" points="474.787,-1315.78 470.232,-1306.21 467.827,-1316.53 474.787,-1315.78"/>
</g>
<!-- \\Elab\\Csmp\\Blocks\\Add -->
<g id="node8" class="node"><title>\\Elab\\Csmp\\Blocks\\Add</title>
<polygon fill="none" stroke="black" points="707.888,-1765.08 653.888,-1765.08 653.888,-1729.08 707.888,-1729.08 707.888,-1765.08"/>
<text text-anchor="middle" x="680.888" y="-1744.28" font-family="Courier,monospace" font-size="11.00">Add</text>
</g>
<!-- \\Elab\\Csmp\\Blocks\\Add&#45;&gt;\\Elab\\Csmp\\Block -->
<g id="edge11" class="edge"><title>\\Elab\\Csmp\\Blocks\\Add&#45;&gt;\\Elab\\Csmp\\Block</title>
<path fill="none" stroke="black" d="M653.818,-1746.61C632.102,-1744.81 601.845,-1738.77 583.388,-1720.08 525.471,-1661.43 484.491,-1402.68 472.216,-1316.28"/>
<polygon fill="none" stroke="black" points="475.653,-1315.59 470.8,-1306.17 468.721,-1316.56 475.653,-1315.59"/>
</g>
<!-- \\Elab\\Csmp\\Blocks\\UnitDelay -->
<g id="node9" class="node"><title>\\Elab\\Csmp\\Blocks\\UnitDelay</title>
<polygon fill="none" stroke="black" points="719.388,-1711.08 642.388,-1711.08 642.388,-1675.08 719.388,-1675.08 719.388,-1711.08"/>
<text text-anchor="middle" x="680.888" y="-1690.28" font-family="Courier,monospace" font-size="11.00">UnitDelay</text>
</g>
<!-- \\Elab\\Csmp\\Blocks\\UnitDelay&#45;&gt;\\Elab\\Csmp\\Block -->
<g id="edge13" class="edge"><title>\\Elab\\Csmp\\Blocks\\UnitDelay&#45;&gt;\\Elab\\Csmp\\Block</title>
<path fill="none" stroke="black" d="M642.156,-1691.05C622.308,-1688.08 598.937,-1681.28 583.388,-1666.08 483.292,-1568.21 469.703,-1386.16 468.308,-1316.34"/>
<polygon fill="none" stroke="black" points="471.805,-1316.08 468.178,-1306.13 464.806,-1316.17 471.805,-1316.08"/>
</g>
<!-- \\Elab\\Csmp\\Blocks\\NegativeLimiter -->
<g id="node10" class="node"><title>\\Elab\\Csmp\\Blocks\\NegativeLimiter</title>
<polygon fill="none" stroke="black" points="739.888,-1657.08 621.888,-1657.08 621.888,-1621.08 739.888,-1621.08 739.888,-1657.08"/>
<text text-anchor="middle" x="680.888" y="-1636.28" font-family="Courier,monospace" font-size="11.00">NegativeLimiter</text>
</g>
<!-- \\Elab\\Csmp\\Blocks\\NegativeLimiter&#45;&gt;\\Elab\\Csmp\\Block -->
<g id="edge15" class="edge"><title>\\Elab\\Csmp\\Blocks\\NegativeLimiter&#45;&gt;\\Elab\\Csmp\\Block</title>
<path fill="none" stroke="black" d="M621.699,-1632.26C607.794,-1628.24 593.94,-1621.94 583.388,-1612.08 496.354,-1530.79 475.13,-1379.4 470.001,-1316.56"/>
<polygon fill="none" stroke="black" points="473.466,-1315.95 469.241,-1306.23 466.485,-1316.46 473.466,-1315.95"/>
</g>
<!-- \\Elab\\Csmp\\Blocks\\Sqrt -->
<g id="node11" class="node"><title>\\Elab\\Csmp\\Blocks\\Sqrt</title>
<polygon fill="none" stroke="black" points="707.888,-1603.08 653.888,-1603.08 653.888,-1567.08 707.888,-1567.08 707.888,-1603.08"/>
<text text-anchor="middle" x="680.888" y="-1582.28" font-family="Courier,monospace" font-size="11.00">Sqrt</text>
</g>
<!-- \\Elab\\Csmp\\Blocks\\Sqrt&#45;&gt;\\Elab\\Csmp\\Block -->
<g id="edge16" class="edge"><title>\\Elab\\Csmp\\Blocks\\Sqrt&#45;&gt;\\Elab\\Csmp\\Block</title>
<path fill="none" stroke="black" d="M653.614,-1583.83C632.362,-1581.52 602.867,-1575.18 583.388,-1558.08 509.084,-1492.85 481.349,-1371.36 472.277,-1316.39"/>
<polygon fill="none" stroke="black" points="475.705,-1315.66 470.703,-1306.32 468.789,-1316.74 475.705,-1315.66"/>
</g>
<!-- \\Elab\\Csmp\\Blocks\\Vacuous -->
<g id="node12" class="node"><title>\\Elab\\Csmp\\Blocks\\Vacuous</title>
<polygon fill="none" stroke="black" points="712.888,-1549.08 648.888,-1549.08 648.888,-1513.08 712.888,-1513.08 712.888,-1549.08"/>
<text text-anchor="middle" x="680.888" y="-1528.28" font-family="Courier,monospace" font-size="11.00">Vacuous</text>
</g>
<!-- \\Elab\\Csmp\\Blocks\\Vacuous&#45;&gt;\\Elab\\Csmp\\Block -->
<g id="edge19" class="edge"><title>\\Elab\\Csmp\\Blocks\\Vacuous&#45;&gt;\\Elab\\Csmp\\Block</title>
<path fill="none" stroke="black" d="M648.759,-1528.68C628.293,-1525.7 601.962,-1519.01 583.388,-1504.08 521.517,-1454.33 488.696,-1362.12 475.482,-1315.94"/>
<polygon fill="none" stroke="black" points="478.853,-1315 472.816,-1306.3 472.105,-1316.87 478.853,-1315"/>
</g>
<!-- \\Elab\\Csmp\\Blocks\\Sin -->
<g id="node13" class="node"><title>\\Elab\\Csmp\\Blocks\\Sin</title>
<polygon fill="none" stroke="black" points="707.888,-1495.08 653.888,-1495.08 653.888,-1459.08 707.888,-1459.08 707.888,-1495.08"/>
<text text-anchor="middle" x="680.888" y="-1474.28" font-family="Courier,monospace" font-size="11.00">Sin</text>
</g>
<!-- \\Elab\\Csmp\\Blocks\\Sin&#45;&gt;\\Elab\\Csmp\\Block -->
<g id="edge21" class="edge"><title>\\Elab\\Csmp\\Blocks\\Sin&#45;&gt;\\Elab\\Csmp\\Block</title>
<path fill="none" stroke="black" d="M653.677,-1474.57C633.017,-1471.51 604.303,-1464.8 583.388,-1450.08 533.882,-1415.25 498.206,-1352.04 480.665,-1315.73"/>
<polygon fill="none" stroke="black" points="483.627,-1313.8 476.201,-1306.25 477.294,-1316.78 483.627,-1313.8"/>
</g>
<!-- \\Elab\\Csmp\\Blocks\\Wye -->
<g id="node14" class="node"><title>\\Elab\\Csmp\\Blocks\\Wye</title>
<polygon fill="none" stroke="black" points="707.888,-1441.08 653.888,-1441.08 653.888,-1405.08 707.888,-1405.08 707.888,-1441.08"/>
<text text-anchor="middle" x="680.888" y="-1420.28" font-family="Courier,monospace" font-size="11.00">Wye</text>
</g>
<!-- \\Elab\\Csmp\\Blocks\\Wye&#45;&gt;\\Elab\\Csmp\\Block -->
<g id="edge22" class="edge"><title>\\Elab\\Csmp\\Blocks\\Wye&#45;&gt;\\Elab\\Csmp\\Block</title>
<path fill="none" stroke="black" d="M653.586,-1419.24C633.401,-1415.49 605.361,-1408.47 583.388,-1396.08 545.662,-1374.81 510.666,-1338.61 489.42,-1314.04"/>
<polygon fill="none" stroke="black" points="491.898,-1311.55 482.758,-1306.19 486.561,-1316.08 491.898,-1311.55"/>
</g>
<!-- \\Elab\\Csmp\\Blocks\\Cos -->
<g id="node15" class="node"><title>\\Elab\\Csmp\\Blocks\\Cos</title>
<polygon fill="none" stroke="black" points="707.888,-1387.08 653.888,-1387.08 653.888,-1351.08 707.888,-1351.08 707.888,-1387.08"/>
<text text-anchor="middle" x="680.888" y="-1366.28" font-family="Courier,monospace" font-size="11.00">Cos</text>
</g>
<!-- \\Elab\\Csmp\\Blocks\\Cos&#45;&gt;\\Elab\\Csmp\\Block -->
<g id="edge23" class="edge"><title>\\Elab\\Csmp\\Blocks\\Cos&#45;&gt;\\Elab\\Csmp\\Block</title>
<path fill="none" stroke="black" d="M653.71,-1363.01C634.084,-1358.16 606.706,-1350.75 583.388,-1342.08 559.255,-1333.11 533.221,-1321.09 512.036,-1310.67"/>
<polygon fill="none" stroke="black" points="513.485,-1307.48 502.972,-1306.17 510.369,-1313.75 513.485,-1307.48"/>
</g>
<!-- \\Elab\\Csmp\\Blocks\\Relay -->
<g id="node16" class="node"><title>\\Elab\\Csmp\\Blocks\\Relay</title>
<polygon fill="none" stroke="black" points="707.888,-1333.08 653.888,-1333.08 653.888,-1297.08 707.888,-1297.08 707.888,-1333.08"/>
<text text-anchor="middle" x="680.888" y="-1312.28" font-family="Courier,monospace" font-size="11.00">Relay</text>
</g>
<!-- \\Elab\\Csmp\\Blocks\\Relay&#45;&gt;\\Elab\\Csmp\\Block -->
<g id="edge25" class="edge"><title>\\Elab\\Csmp\\Blocks\\Relay&#45;&gt;\\Elab\\Csmp\\Block</title>
<path fill="none" stroke="black" d="M653.529,-1311.71C620.179,-1307.46 562.004,-1300.03 519.748,-1294.64"/>
<polygon fill="none" stroke="black" points="520.006,-1291.14 509.643,-1293.35 519.12,-1298.08 520.006,-1291.14"/>
</g>
<!-- \\Elab\\Csmp\\Blocks\\DeadZone -->
<g id="node17" class="node"><title>\\Elab\\Csmp\\Blocks\\DeadZone</title>
<polygon fill="none" stroke="black" points="716.388,-1279.08 645.388,-1279.08 645.388,-1243.08 716.388,-1243.08 716.388,-1279.08"/>
<text text-anchor="middle" x="680.888" y="-1258.28" font-family="Courier,monospace" font-size="11.00">DeadZone</text>
</g>
<!-- \\Elab\\Csmp\\Blocks\\DeadZone&#45;&gt;\\Elab\\Csmp\\Block -->
<g id="edge26" class="edge"><title>\\Elab\\Csmp\\Blocks\\DeadZone&#45;&gt;\\Elab\\Csmp\\Block</title>
<path fill="none" stroke="black" d="M644.963,-1265.54C610.821,-1269.9 558.45,-1276.58 519.6,-1281.54"/>
<polygon fill="none" stroke="black" points="519.008,-1278.09 509.531,-1282.83 519.894,-1285.03 519.008,-1278.09"/>
</g>
<!-- \\Elab\\Csmp\\Blocks\\Limiter -->
<g id="node18" class="node"><title>\\Elab\\Csmp\\Blocks\\Limiter</title>
<polygon fill="none" stroke="black" points="712.888,-1225.08 648.888,-1225.08 648.888,-1189.08 712.888,-1189.08 712.888,-1225.08"/>
<text text-anchor="middle" x="680.888" y="-1204.28" font-family="Courier,monospace" font-size="11.00">Limiter</text>
</g>
<!-- \\Elab\\Csmp\\Blocks\\Limiter&#45;&gt;\\Elab\\Csmp\\Block -->
<g id="edge29" class="edge"><title>\\Elab\\Csmp\\Blocks\\Limiter&#45;&gt;\\Elab\\Csmp\\Block</title>
<path fill="none" stroke="black" d="M648.613,-1214.42C629.518,-1219.25 604.749,-1226.14 583.388,-1234.08 559.255,-1243.05 533.221,-1255.07 512.036,-1265.49"/>
<polygon fill="none" stroke="black" points="510.369,-1262.41 502.972,-1269.99 513.485,-1268.68 510.369,-1262.41"/>
</g>
<!-- \\Elab\\Csmp\\Blocks\\Divide -->
<g id="node19" class="node"><title>\\Elab\\Csmp\\Blocks\\Divide</title>
<polygon fill="none" stroke="black" points="709.388,-1171.08 652.388,-1171.08 652.388,-1135.08 709.388,-1135.08 709.388,-1171.08"/>
<text text-anchor="middle" x="680.888" y="-1150.28" font-family="Courier,monospace" font-size="11.00">Divide</text>
</g>
<!-- \\Elab\\Csmp\\Blocks\\Divide&#45;&gt;\\Elab\\Csmp\\Block -->
<g id="edge32" class="edge"><title>\\Elab\\Csmp\\Blocks\\Divide&#45;&gt;\\Elab\\Csmp\\Block</title>
<path fill="none" stroke="black" d="M652.324,-1157.15C632.243,-1160.97 604.906,-1167.95 583.388,-1180.08 545.662,-1201.35 510.666,-1237.55 489.42,-1262.12"/>
<polygon fill="none" stroke="black" points="486.561,-1260.08 482.758,-1269.97 491.898,-1264.61 486.561,-1260.08"/>
</g>
<!-- \\Elab\\Csmp\\Blocks\\ArcTan -->
<g id="node20" class="node"><title>\\Elab\\Csmp\\Blocks\\ArcTan</title>
<polygon fill="none" stroke="black" points="709.388,-1117.08 652.388,-1117.08 652.388,-1081.08 709.388,-1081.08 709.388,-1117.08"/>
<text text-anchor="middle" x="680.888" y="-1096.28" font-family="Courier,monospace" font-size="11.00">ArcTan</text>
</g>
<!-- \\Elab\\Csmp\\Blocks\\ArcTan&#45;&gt;\\Elab\\Csmp\\Block -->
<g id="edge34" class="edge"><title>\\Elab\\Csmp\\Blocks\\ArcTan&#45;&gt;\\Elab\\Csmp\\Block</title>
<path fill="none" stroke="black" d="M651.973,-1101.85C631.46,-1105.02 603.733,-1111.76 583.388,-1126.08 533.882,-1160.91 498.206,-1224.12 480.665,-1260.43"/>
<polygon fill="none" stroke="black" points="477.294,-1259.37 476.201,-1269.91 483.627,-1262.35 477.294,-1259.37"/>
</g>
<!-- \\Elab\\Csmp\\Blocks\\Amplify -->
<g id="node21" class="node"><title>\\Elab\\Csmp\\Blocks\\Amplify</title>
<polygon fill="none" stroke="black" points="712.888,-1063.08 648.888,-1063.08 648.888,-1027.08 712.888,-1027.08 712.888,-1063.08"/>
<text text-anchor="middle" x="680.888" y="-1042.28" font-family="Courier,monospace" font-size="11.00">Amplify</text>
</g>
<!-- \\Elab\\Csmp\\Blocks\\Amplify&#45;&gt;\\Elab\\Csmp\\Block -->
<g id="edge35" class="edge"><title>\\Elab\\Csmp\\Blocks\\Amplify&#45;&gt;\\Elab\\Csmp\\Block</title>
<path fill="none" stroke="black" d="M648.759,-1047.48C628.293,-1050.46 601.962,-1057.14 583.388,-1072.08 521.517,-1121.82 488.696,-1214.04 475.482,-1260.21"/>
<polygon fill="none" stroke="black" points="472.105,-1259.29 472.816,-1269.86 478.853,-1261.16 472.105,-1259.29"/>
</g>
<!-- \\Elab\\Csmp\\Blocks\\ImpulseGenerator -->
<g id="node22" class="node"><title>\\Elab\\Csmp\\Blocks\\ImpulseGenerator</title>
<polygon fill="none" stroke="black" points="743.388,-1009.08 618.388,-1009.08 618.388,-973.079 743.388,-973.079 743.388,-1009.08"/>
<text text-anchor="middle" x="680.888" y="-988.279" font-family="Courier,monospace" font-size="11.00">ImpulseGenerator</text>
</g>
<!-- \\Elab\\Csmp\\Blocks\\ImpulseGenerator&#45;&gt;\\Elab\\Csmp\\Block -->
<g id="edge36" class="edge"><title>\\Elab\\Csmp\\Blocks\\ImpulseGenerator&#45;&gt;\\Elab\\Csmp\\Block</title>
<path fill="none" stroke="black" d="M618.338,-999.495C605.7,-1003.51 593.258,-1009.41 583.388,-1018.08 509.084,-1083.31 481.349,-1204.8 472.277,-1259.77"/>
<polygon fill="none" stroke="black" points="468.789,-1259.42 470.703,-1269.84 475.705,-1260.5 468.789,-1259.42"/>
</g>
<!-- \\Elab\\Csmp\\Blocks\\Randomizer -->
<g id="node23" class="node"><title>\\Elab\\Csmp\\Blocks\\Randomizer</title>
<polygon fill="none" stroke="black" points="722.888,-955.079 638.888,-955.079 638.888,-919.079 722.888,-919.079 722.888,-955.079"/>
<text text-anchor="middle" x="680.888" y="-934.279" font-family="Courier,monospace" font-size="11.00">Randomizer</text>
</g>
<!-- \\Elab\\Csmp\\Blocks\\Randomizer&#45;&gt;\\Elab\\Csmp\\Block -->
<g id="edge37" class="edge"><title>\\Elab\\Csmp\\Blocks\\Randomizer&#45;&gt;\\Elab\\Csmp\\Block</title>
<path fill="none" stroke="black" d="M638.59,-940.027C619.698,-943.352 598.263,-950.186 583.388,-964.079 496.354,-1045.37 475.13,-1196.75 470.001,-1259.6"/>
<polygon fill="none" stroke="black" points="466.485,-1259.69 469.241,-1269.92 473.466,-1260.21 466.485,-1259.69"/>
</g>
<!-- \\Elab\\Csmp\\Blocks\\Abs -->
<g id="node24" class="node"><title>\\Elab\\Csmp\\Blocks\\Abs</title>
<polygon fill="none" stroke="black" points="707.888,-901.079 653.888,-901.079 653.888,-865.079 707.888,-865.079 707.888,-901.079"/>
<text text-anchor="middle" x="680.888" y="-880.279" font-family="Courier,monospace" font-size="11.00">Abs</text>
</g>
<!-- \\Elab\\Csmp\\Blocks\\Abs&#45;&gt;\\Elab\\Csmp\\Block -->
<g id="edge38" class="edge"><title>\\Elab\\Csmp\\Blocks\\Abs&#45;&gt;\\Elab\\Csmp\\Block</title>
<path fill="none" stroke="black" d="M653.552,-883.75C631.97,-885.702 602.046,-891.836 583.388,-910.079 483.292,-1007.95 469.703,-1190 468.308,-1259.82"/>
<polygon fill="none" stroke="black" points="464.806,-1259.99 468.178,-1270.03 471.805,-1260.08 464.806,-1259.99"/>
</g>
<!-- \\Elab\\Csmp\\Blocks\\Constant -->
<g id="node25" class="node"><title>\\Elab\\Csmp\\Blocks\\Constant</title>
<polygon fill="none" stroke="black" points="716.388,-847.079 645.388,-847.079 645.388,-811.079 716.388,-811.079 716.388,-847.079"/>
<text text-anchor="middle" x="680.888" y="-826.279" font-family="Courier,monospace" font-size="11.00">Constant</text>
</g>
<!-- \\Elab\\Csmp\\Blocks\\Constant&#45;&gt;\\Elab\\Csmp\\Block -->
<g id="edge40" class="edge"><title>\\Elab\\Csmp\\Blocks\\Constant&#45;&gt;\\Elab\\Csmp\\Block</title>
<path fill="none" stroke="black" d="M645.255,-830.445C624.675,-833.071 599.522,-839.739 583.388,-856.079 525.471,-914.733 484.491,-1173.47 472.216,-1259.88"/>
<polygon fill="none" stroke="black" points="468.721,-1259.6 470.8,-1269.99 475.653,-1260.57 468.721,-1259.6"/>
</g>
<!-- \\Elab\\Csmp\\Blocks\\Time -->
<g id="node26" class="node"><title>\\Elab\\Csmp\\Blocks\\Time</title>
<polygon fill="none" stroke="black" points="707.888,-793.079 653.888,-793.079 653.888,-757.079 707.888,-757.079 707.888,-793.079"/>
<text text-anchor="middle" x="680.888" y="-772.279" font-family="Courier,monospace" font-size="11.00">Time</text>
</g>
<!-- \\Elab\\Csmp\\Blocks\\Time&#45;&gt;\\Elab\\Csmp\\Block -->
<g id="edge43" class="edge"><title>\\Elab\\Csmp\\Blocks\\Time&#45;&gt;\\Elab\\Csmp\\Block</title>
<path fill="none" stroke="black" d="M653.685,-775.417C631.887,-777.143 601.583,-783.132 583.388,-802.079 518.83,-869.303 481.598,-1166.37 471.326,-1259.83"/>
<polygon fill="none" stroke="black" points="467.827,-1259.63 470.232,-1269.95 474.787,-1260.38 467.827,-1259.63"/>
</g>
<!-- \\Elab\\Csmp\\Blocks\\CircuitDelay -->
<g id="node27" class="node"><title>\\Elab\\Csmp\\Blocks\\CircuitDelay</title>
<polygon fill="none" stroke="black" points="729.888,-739.079 631.888,-739.079 631.888,-703.079 729.888,-703.079 729.888,-739.079"/>
<text text-anchor="middle" x="680.888" y="-718.279" font-family="Courier,monospace" font-size="11.00">CircuitDelay</text>
</g>
<!-- \\Elab\\Csmp\\Blocks\\CircuitDelay&#45;&gt;\\Elab\\Csmp\\Block -->
<g id="edge44" class="edge"><title>\\Elab\\Csmp\\Blocks\\CircuitDelay&#45;&gt;\\Elab\\Csmp\\Block</title>
<path fill="none" stroke="black" d="M631.823,-724.279C614.372,-727.827 595.891,-734.762 583.388,-748.079 512.164,-823.936 479.034,-1159.52 470.612,-1259.73"/>
<polygon fill="none" stroke="black" points="467.1,-1259.73 469.768,-1269.98 474.077,-1260.3 467.1,-1259.73"/>
</g>
<!-- \\Elab\\Csmp\\Blocks\\EmptyBlock -->
<g id="node28" class="node"><title>\\Elab\\Csmp\\Blocks\\EmptyBlock</title>
<polygon fill="none" stroke="black" points="722.888,-685.079 638.888,-685.079 638.888,-649.079 722.888,-649.079 722.888,-685.079"/>
<text text-anchor="middle" x="680.888" y="-664.279" font-family="Courier,monospace" font-size="11.00">EmptyBlock</text>
</g>
<!-- \\Elab\\Csmp\\Blocks\\EmptyBlock&#45;&gt;\\Elab\\Csmp\\Block -->
<g id="edge45" class="edge"><title>\\Elab\\Csmp\\Blocks\\EmptyBlock&#45;&gt;\\Elab\\Csmp\\Block</title>
<path fill="none" stroke="black" d="M638.611,-668.921C619.255,-671.951 597.417,-678.856 583.388,-694.079 505.441,-778.658 476.696,-1153.23 470.015,-1259.74"/>
<polygon fill="none" stroke="black" points="466.504,-1259.82 469.388,-1270.02 473.491,-1260.25 466.504,-1259.82"/>
</g>
<!-- \\Elab\\Csmp\\Blocks\\Invert -->
<g id="node29" class="node"><title>\\Elab\\Csmp\\Blocks\\Invert</title>
<polygon fill="none" stroke="black" points="709.388,-631.079 652.388,-631.079 652.388,-595.079 709.388,-595.079 709.388,-631.079"/>
<text text-anchor="middle" x="680.888" y="-610.279" font-family="Courier,monospace" font-size="11.00">Invert</text>
</g>
<!-- \\Elab\\Csmp\\Blocks\\Invert&#45;&gt;\\Elab\\Csmp\\Block -->
<g id="edge46" class="edge"><title>\\Elab\\Csmp\\Blocks\\Invert&#45;&gt;\\Elab\\Csmp\\Block</title>
<path fill="none" stroke="black" d="M652.091,-613.259C630.238,-614.966 600.688,-621.01 583.388,-640.079 498.687,-733.439 474.562,-1147.27 469.515,-1259.77"/>
<polygon fill="none" stroke="black" points="466.009,-1259.84 469.073,-1269.98 473.002,-1260.14 466.009,-1259.84"/>
</g>
<!-- \\Elab\\Csmp\\Blocks\\Offset -->
<g id="node30" class="node"><title>\\Elab\\Csmp\\Blocks\\Offset</title>
<polygon fill="none" stroke="black" points="709.388,-577.079 652.388,-577.079 652.388,-541.079 709.388,-541.079 709.388,-577.079"/>
<text text-anchor="middle" x="680.888" y="-556.279" font-family="Courier,monospace" font-size="11.00">Offset</text>
</g>
<!-- \\Elab\\Csmp\\Blocks\\Offset&#45;&gt;\\Elab\\Csmp\\Block -->
<g id="edge48" class="edge"><title>\\Elab\\Csmp\\Blocks\\Offset&#45;&gt;\\Elab\\Csmp\\Block</title>
<path fill="none" stroke="black" d="M652.024,-559.198C630.131,-560.869 600.561,-566.896 583.388,-586.079 491.924,-688.246 472.607,-1141.4 469.092,-1259.73"/>
<polygon fill="none" stroke="black" points="465.592,-1259.72 468.808,-1269.82 472.589,-1259.92 465.592,-1259.72"/>
</g>
<!-- \\Elab\\Csmp\\Blocks\\IoT -->
<g id="node31" class="node"><title>\\Elab\\Csmp\\Blocks\\IoT</title>
<polygon fill="none" stroke="black" points="707.888,-523.079 653.888,-523.079 653.888,-487.079 707.888,-487.079 707.888,-523.079"/>
<text text-anchor="middle" x="680.888" y="-502.279" font-family="Courier,monospace" font-size="11.00">IoT</text>
</g>
<!-- \\Elab\\Csmp\\Blocks\\IoT&#45;&gt;\\Elab\\Csmp\\Block -->
<g id="edge49" class="edge"><title>\\Elab\\Csmp\\Blocks\\IoT&#45;&gt;\\Elab\\Csmp\\Block</title>
<path fill="none" stroke="black" d="M653.726,-505.022C631.647,-506.471 600.913,-512.277 583.388,-532.079 485.169,-643.06 470.799,-1135.47 468.73,-1259.59"/>
<polygon fill="none" stroke="black" points="465.227,-1259.75 468.574,-1269.81 472.226,-1259.86 465.227,-1259.75"/>
</g>
<!-- \\Elab\\Csmp\\Methods\\Heun -->
<g id="node32" class="node"><title>\\Elab\\Csmp\\Methods\\Heun</title>
<polygon fill="none" stroke="black" points="707.888,-2951.08 653.888,-2951.08 653.888,-2915.08 707.888,-2915.08 707.888,-2951.08"/>
<text text-anchor="middle" x="680.888" y="-2930.28" font-family="Courier,monospace" font-size="11.00">Heun</text>
</g>
<!-- \\Elab\\Csmp\\RungeKutta -->
<g id="node51" class="node"><title>\\Elab\\Csmp\\RungeKutta</title>
<polygon fill="none" stroke="black" points="509.388,-2762.08 425.388,-2762.08 425.388,-2726.08 509.388,-2726.08 509.388,-2762.08"/>
<text text-anchor="start" x="433.388" y="-2747.28" font-family="Courier,monospace" font-size="11.00">«abstract»</text>
<text text-anchor="start" x="433.388" y="-2735.28" font-family="Courier,monospace" font-size="11.00">RungeKutta</text>
</g>
<!-- \\Elab\\Csmp\\Methods\\Heun&#45;&gt;\\Elab\\Csmp\\RungeKutta -->
<g id="edge4" class="edge"><title>\\Elab\\Csmp\\Methods\\Heun&#45;&gt;\\Elab\\Csmp\\RungeKutta</title>
<path fill="none" stroke="black" d="M653.677,-2930.57C633.017,-2927.51 604.303,-2920.8 583.388,-2906.08 533.882,-2871.25 498.206,-2808.04 480.665,-2771.73"/>
<polygon fill="none" stroke="black" points="483.627,-2769.8 476.201,-2762.25 477.294,-2772.78 483.627,-2769.8"/>
</g>
<!-- \\Elab\\Csmp\\Methods\\RungeKuttaIII -->
<g id="node33" class="node"><title>\\Elab\\Csmp\\Methods\\RungeKuttaIII</title>
<polygon fill="none" stroke="black" points="732.888,-2897.08 628.888,-2897.08 628.888,-2861.08 732.888,-2861.08 732.888,-2897.08"/>
<text text-anchor="middle" x="680.888" y="-2876.28" font-family="Courier,monospace" font-size="11.00">RungeKuttaIII</text>
</g>
<!-- \\Elab\\Csmp\\Methods\\RungeKuttaIII&#45;&gt;\\Elab\\Csmp\\RungeKutta -->
<g id="edge5" class="edge"><title>\\Elab\\Csmp\\Methods\\RungeKuttaIII&#45;&gt;\\Elab\\Csmp\\RungeKutta</title>
<path fill="none" stroke="black" d="M628.485,-2869.58C613.357,-2865.51 597.178,-2859.85 583.388,-2852.08 545.662,-2830.81 510.666,-2794.61 489.42,-2770.04"/>
<polygon fill="none" stroke="black" points="491.898,-2767.55 482.758,-2762.19 486.561,-2772.08 491.898,-2767.55"/>
</g>
<!-- \\Elab\\Csmp\\Methods\\MiddlePoint -->
<g id="node34" class="node"><title>\\Elab\\Csmp\\Methods\\MiddlePoint</title>
<polygon fill="none" stroke="black" points="726.388,-2843.08 635.388,-2843.08 635.388,-2807.08 726.388,-2807.08 726.388,-2843.08"/>
<text text-anchor="middle" x="680.888" y="-2822.28" font-family="Courier,monospace" font-size="11.00">MiddlePoint</text>
</g>
<!-- \\Elab\\Csmp\\Methods\\MiddlePoint&#45;&gt;\\Elab\\Csmp\\RungeKutta -->
<g id="edge12" class="edge"><title>\\Elab\\Csmp\\Methods\\MiddlePoint&#45;&gt;\\Elab\\Csmp\\RungeKutta</title>
<path fill="none" stroke="black" d="M635.196,-2814.24C618.718,-2809.8 600.02,-2804.26 583.388,-2798.08 559.255,-2789.11 533.221,-2777.09 512.036,-2766.67"/>
<polygon fill="none" stroke="black" points="513.485,-2763.48 502.972,-2762.17 510.369,-2769.75 513.485,-2763.48"/>
</g>
<!-- \\Elab\\Csmp\\Methods\\RungeKuttaIV38 -->
<g id="node35" class="node"><title>\\Elab\\Csmp\\Methods\\RungeKuttaIV38</title>
<polygon fill="none" stroke="black" points="736.388,-2789.08 625.388,-2789.08 625.388,-2753.08 736.388,-2753.08 736.388,-2789.08"/>
<text text-anchor="middle" x="680.888" y="-2768.28" font-family="Courier,monospace" font-size="11.00">RungeKuttaIV38</text>
</g>
<!-- \\Elab\\Csmp\\Methods\\RungeKuttaIV38&#45;&gt;\\Elab\\Csmp\\RungeKutta -->
<g id="edge14" class="edge"><title>\\Elab\\Csmp\\Methods\\RungeKuttaIV38&#45;&gt;\\Elab\\Csmp\\RungeKutta</title>
<path fill="none" stroke="black" d="M625.146,-2764.09C592.565,-2759.93 551.49,-2754.69 519.56,-2750.61"/>
<polygon fill="none" stroke="black" points="519.9,-2747.13 509.537,-2749.33 519.013,-2754.07 519.9,-2747.13"/>
</g>
<!-- \\Elab\\Csmp\\Methods\\Ralston -->
<g id="node36" class="node"><title>\\Elab\\Csmp\\Methods\\Ralston</title>
<polygon fill="none" stroke="black" points="712.888,-2735.08 648.888,-2735.08 648.888,-2699.08 712.888,-2699.08 712.888,-2735.08"/>
<text text-anchor="middle" x="680.888" y="-2714.28" font-family="Courier,monospace" font-size="11.00">Ralston</text>
</g>
<!-- \\Elab\\Csmp\\Methods\\Ralston&#45;&gt;\\Elab\\Csmp\\RungeKutta -->
<g id="edge18" class="edge"><title>\\Elab\\Csmp\\Methods\\Ralston&#45;&gt;\\Elab\\Csmp\\RungeKutta</title>
<path fill="none" stroke="black" d="M648.68,-2721.06C614.749,-2725.39 559.985,-2732.39 519.706,-2737.53"/>
<polygon fill="none" stroke="black" points="519.016,-2734.09 509.539,-2738.83 519.902,-2741.03 519.016,-2734.09"/>
</g>
<!-- \\Elab\\Csmp\\Methods\\Euler -->
<g id="node37" class="node"><title>\\Elab\\Csmp\\Methods\\Euler</title>
<polygon fill="none" stroke="black" points="707.888,-2681.08 653.888,-2681.08 653.888,-2645.08 707.888,-2645.08 707.888,-2681.08"/>
<text text-anchor="middle" x="680.888" y="-2660.28" font-family="Courier,monospace" font-size="11.00">Euler</text>
</g>
<!-- \\Elab\\Csmp\\Methods\\Euler&#45;&gt;\\Elab\\Csmp\\RungeKutta -->
<g id="edge42" class="edge"><title>\\Elab\\Csmp\\Methods\\Euler&#45;&gt;\\Elab\\Csmp\\RungeKutta</title>
<path fill="none" stroke="black" d="M653.71,-2669.15C634.084,-2674 606.706,-2681.41 583.388,-2690.08 559.255,-2699.05 533.221,-2711.07 512.036,-2721.49"/>
<polygon fill="none" stroke="black" points="510.369,-2718.41 502.972,-2725.99 513.485,-2724.68 510.369,-2718.41"/>
</g>
<!-- \\Elab\\Csmp\\Methods\\RungeKuttaIV -->
<g id="node38" class="node"><title>\\Elab\\Csmp\\Methods\\RungeKuttaIV</title>
<polygon fill="none" stroke="black" points="729.888,-2627.08 631.888,-2627.08 631.888,-2591.08 729.888,-2591.08 729.888,-2627.08"/>
<text text-anchor="middle" x="680.888" y="-2606.28" font-family="Courier,monospace" font-size="11.00">RungeKuttaIV</text>
</g>
<!-- \\Elab\\Csmp\\Methods\\RungeKuttaIV&#45;&gt;\\Elab\\Csmp\\RungeKutta -->
<g id="edge47" class="edge"><title>\\Elab\\Csmp\\Methods\\RungeKuttaIV&#45;&gt;\\Elab\\Csmp\\RungeKutta</title>
<path fill="none" stroke="black" d="M631.463,-2617.8C615.501,-2621.91 598.087,-2627.79 583.388,-2636.08 545.662,-2657.35 510.666,-2693.55 489.42,-2718.12"/>
<polygon fill="none" stroke="black" points="486.561,-2716.08 482.758,-2725.97 491.898,-2720.61 486.561,-2716.08"/>
</g>
<!-- \\Elab\\Csmp\\Exceptions\\IoTException -->
<g id="node39" class="node"><title>\\Elab\\Csmp\\Exceptions\\IoTException</title>
<polygon fill="none" stroke="black" points="729.888,-2547.08 631.888,-2547.08 631.888,-2511.08 729.888,-2511.08 729.888,-2547.08"/>
<text text-anchor="middle" x="680.888" y="-2526.28" font-family="Courier,monospace" font-size="11.00">IoTException</text>
</g>
<!-- \\Elab\\Csmp\\Exceptions\\CsmpException -->
<g id="node41" class="node"><title>\\Elab\\Csmp\\Exceptions\\CsmpException</title>
<polygon fill="none" stroke="black" points="519.388,-2358.08 415.388,-2358.08 415.388,-2322.08 519.388,-2322.08 519.388,-2358.08"/>
<text text-anchor="middle" x="467.388" y="-2337.28" font-family="Courier,monospace" font-size="11.00">CsmpException</text>
</g>
<!-- \\Elab\\Csmp\\Exceptions\\IoTException&#45;&gt;\\Elab\\Csmp\\Exceptions\\CsmpException -->
<g id="edge7" class="edge"><title>\\Elab\\Csmp\\Exceptions\\IoTException&#45;&gt;\\Elab\\Csmp\\Exceptions\\CsmpException</title>
<path fill="none" stroke="black" d="M631.78,-2524.04C614.933,-2520.24 596.874,-2513.61 583.388,-2502.08 533.826,-2459.7 565.019,-2414.4 521.907,-2365.5"/>
<polygon fill="none" stroke="black" points="524.427,-2363.07 514.988,-2358.26 519.366,-2367.91 524.427,-2363.07"/>
</g>
<!-- \\Elab\\Csmp\\Exceptions\\SimulationException -->
<g id="node40" class="node"><title>\\Elab\\Csmp\\Exceptions\\SimulationException</title>
<polygon fill="none" stroke="black" points="753.388,-2493.08 608.388,-2493.08 608.388,-2457.08 753.388,-2457.08 753.388,-2493.08"/>
<text text-anchor="middle" x="680.888" y="-2472.28" font-family="Courier,monospace" font-size="11.00">SimulationException</text>
</g>
<!-- \\Elab\\Csmp\\Exceptions\\SimulationException&#45;&gt;\\Elab\\Csmp\\Exceptions\\CsmpException -->
<g id="edge17" class="edge"><title>\\Elab\\Csmp\\Exceptions\\SimulationException&#45;&gt;\\Elab\\Csmp\\Exceptions\\CsmpException</title>
<path fill="none" stroke="black" d="M608.17,-2460.82C599.415,-2457.44 590.916,-2453.25 583.388,-2448.08 546.724,-2422.89 555.308,-2395.54 521.94,-2364.91"/>
<polygon fill="none" stroke="black" points="524.047,-2362.11 514.152,-2358.32 519.528,-2367.45 524.047,-2362.11"/>
</g>
<!-- \\Exception -->
<g id="node56" class="node"><title>\\Exception</title>
<ellipse fill="none" stroke="black" cx="277.888" cy="-61.0792" rx="50.0912" ry="18"/>
<text text-anchor="middle" x="277.888" y="-57.3792" font-family="Times New Roman,serif" font-size="14.00" fill="gray">\Exception</text>
</g>
<!-- \\Elab\\Csmp\\Exceptions\\CsmpException&#45;&gt;\\Exception -->
<g id="edge24" class="edge"><title>\\Elab\\Csmp\\Exceptions\\CsmpException&#45;&gt;\\Exception</title>
<path fill="none" stroke="black" d="M415.374,-2326.16C412.336,-2323.86 409.615,-2321.19 407.388,-2318.08 263.798,-2117.52 468.85,-311.445 343.388,-99.0792 338.481,-90.7742 330.998,-84.0908 322.845,-78.7867"/>
<polygon fill="none" stroke="black" points="324.59,-75.7525 314.186,-73.7484 321.069,-81.8028 324.59,-75.7525"/>
</g>
<!-- \\Elab\\Csmp\\Exceptions\\NotImplementedException -->
<g id="node42" class="node"><title>\\Elab\\Csmp\\Exceptions\\NotImplementedException</title>
<polygon fill="none" stroke="black" points="766.888,-2439.08 594.888,-2439.08 594.888,-2403.08 766.888,-2403.08 766.888,-2439.08"/>
<text text-anchor="middle" x="680.888" y="-2418.28" font-family="Courier,monospace" font-size="11.00">NotImplementedException</text>
</g>
<!-- \\Elab\\Csmp\\Exceptions\\NotImplementedException&#45;&gt;\\Elab\\Csmp\\Exceptions\\CsmpException -->
<g id="edge30" class="edge"><title>\\Elab\\Csmp\\Exceptions\\NotImplementedException&#45;&gt;\\Elab\\Csmp\\Exceptions\\CsmpException</title>
<path fill="none" stroke="black" d="M609.275,-2403.01C600.475,-2400.27 591.665,-2397.27 583.388,-2394.08 556.383,-2383.66 549.404,-2376.81 520.131,-2362.58"/>
<polygon fill="none" stroke="black" points="521.305,-2359.27 510.77,-2358.14 518.306,-2365.59 521.305,-2359.27"/>
</g>
<!-- \\Elab\\Csmp\\Exceptions\\QuitSimulationException -->
<g id="node43" class="node"><title>\\Elab\\Csmp\\Exceptions\\QuitSimulationException</title>
<polygon fill="none" stroke="black" points="766.888,-2385.08 594.888,-2385.08 594.888,-2349.08 766.888,-2349.08 766.888,-2385.08"/>
<text text-anchor="middle" x="680.888" y="-2364.28" font-family="Courier,monospace" font-size="11.00">QuitSimulationException</text>
</g>
<!-- \\Elab\\Csmp\\Exceptions\\QuitSimulationException&#45;&gt;\\Elab\\Csmp\\Exceptions\\CsmpException -->
<g id="edge31" class="edge"><title>\\Elab\\Csmp\\Exceptions\\QuitSimulationException&#45;&gt;\\Elab\\Csmp\\Exceptions\\CsmpException</title>
<path fill="none" stroke="black" d="M594.777,-2356.21C572.977,-2353.43 549.96,-2350.49 529.629,-2347.9"/>
<polygon fill="none" stroke="black" points="529.935,-2344.41 519.572,-2346.61 529.048,-2351.35 529.935,-2344.41"/>
</g>
<!-- \\Elab\\Csmp\\Exceptions\\CalculationException -->
<g id="node44" class="node"><title>\\Elab\\Csmp\\Exceptions\\CalculationException</title>
<polygon fill="none" stroke="black" points="756.888,-2331.08 604.888,-2331.08 604.888,-2295.08 756.888,-2295.08 756.888,-2331.08"/>
<text text-anchor="middle" x="680.888" y="-2310.28" font-family="Courier,monospace" font-size="11.00">CalculationException</text>
</g>
<!-- \\Elab\\Csmp\\Exceptions\\CalculationException&#45;&gt;\\Elab\\Csmp\\Exceptions\\CsmpException -->
<g id="edge33" class="edge"><title>\\Elab\\Csmp\\Exceptions\\CalculationException&#45;&gt;\\Elab\\Csmp\\Exceptions\\CsmpException</title>
<path fill="none" stroke="black" d="M604.725,-2322.67C580.109,-2325.82 553.074,-2329.27 529.615,-2332.26"/>
<polygon fill="none" stroke="black" points="528.931,-2328.82 519.455,-2333.56 529.818,-2335.77 528.931,-2328.82"/>
</g>
<!-- \\Elab\\Csmp\\Exceptions\\MethodNotFoundException -->
<g id="node45" class="node"><title>\\Elab\\Csmp\\Exceptions\\MethodNotFoundException</title>
<polygon fill="none" stroke="black" points="766.888,-2277.08 594.888,-2277.08 594.888,-2241.08 766.888,-2241.08 766.888,-2277.08"/>
<text text-anchor="middle" x="680.888" y="-2256.28" font-family="Courier,monospace" font-size="11.00">MethodNotFoundException</text>
</g>
<!-- \\Elab\\Csmp\\Exceptions\\MethodNotFoundException&#45;&gt;\\Elab\\Csmp\\Exceptions\\CsmpException -->
<g id="edge39" class="edge"><title>\\Elab\\Csmp\\Exceptions\\MethodNotFoundException&#45;&gt;\\Elab\\Csmp\\Exceptions\\CsmpException</title>
<path fill="none" stroke="black" d="M609.275,-2277.15C600.475,-2279.89 591.665,-2282.89 583.388,-2286.08 556.383,-2296.5 549.404,-2303.35 520.131,-2317.57"/>
<polygon fill="none" stroke="black" points="518.306,-2314.57 510.77,-2322.01 521.305,-2320.89 518.306,-2314.57"/>
</g>
<!-- \\Elab\\Csmp\\Exceptions\\BlockNotFoundException -->
<g id="node46" class="node"><title>\\Elab\\Csmp\\Exceptions\\BlockNotFoundException</title>
<polygon fill="none" stroke="black" points="763.388,-2223.08 598.388,-2223.08 598.388,-2187.08 763.388,-2187.08 763.388,-2223.08"/>
<text text-anchor="middle" x="680.888" y="-2202.28" font-family="Courier,monospace" font-size="11.00">BlockNotFoundException</text>
</g>
<!-- \\Elab\\Csmp\\Exceptions\\BlockNotFoundException&#45;&gt;\\Elab\\Csmp\\Exceptions\\CsmpException -->
<g id="edge41" class="edge"><title>\\Elab\\Csmp\\Exceptions\\BlockNotFoundException&#45;&gt;\\Elab\\Csmp\\Exceptions\\CsmpException</title>
<path fill="none" stroke="black" d="M599.041,-2223.22C593.545,-2225.79 588.263,-2228.73 583.388,-2232.08 546.724,-2257.27 555.308,-2284.62 521.94,-2315.25"/>
<polygon fill="none" stroke="black" points="519.528,-2312.71 514.152,-2321.84 524.047,-2318.05 519.528,-2312.71"/>
</g>
<!-- \\Elab\\Csmp\\Factories\\BlockFactory -->
<g id="node47" class="node"><title>\\Elab\\Csmp\\Factories\\BlockFactory</title>
<polygon fill="none" stroke="black" points="729.888,-443.079 631.888,-443.079 631.888,-407.079 729.888,-407.079 729.888,-443.079"/>
<text text-anchor="middle" x="680.888" y="-422.279" font-family="Courier,monospace" font-size="11.00">BlockFactory</text>
</g>
<!-- \\Elab\\Csmp\\Factories\\IntegrationMethodFactory -->
<g id="node48" class="node"><title>\\Elab\\Csmp\\Factories\\IntegrationMethodFactory</title>
<polygon fill="none" stroke="black" points="770.388,-389.079 591.388,-389.079 591.388,-353.079 770.388,-353.079 770.388,-389.079"/>
<text text-anchor="middle" x="680.888" y="-368.279" font-family="Courier,monospace" font-size="11.00">IntegrationMethodFactory</text>
</g>
<!-- \\Elab\\Csmp\\helpers\\Numbers -->
<g id="node49" class="node"><title>\\Elab\\Csmp\\helpers\\Numbers</title>
<polygon fill="none" stroke="black" points="712.888,-309.079 648.888,-309.079 648.888,-273.079 712.888,-273.079 712.888,-309.079"/>
<text text-anchor="middle" x="680.888" y="-288.279" font-family="Courier,monospace" font-size="11.00">Numbers</text>
</g>
<!-- \\Elab\\Csmp\\Simulation -->
<g id="node50" class="node"><title>\\Elab\\Csmp\\Simulation</title>
<polygon fill="none" stroke="black" points="722.888,-255.079 638.888,-255.079 638.888,-219.079 722.888,-219.079 722.888,-255.079"/>
<text text-anchor="middle" x="680.888" y="-234.279" font-family="Courier,monospace" font-size="11.00">Simulation</text>
</g>
<!-- \\Elab\\Csmp\\IntegrationMethod -->
<g id="node53" class="node"><title>\\Elab\\Csmp\\IntegrationMethod</title>
<polygon fill="none" stroke="black" points="343.388,-1454.08 212.388,-1454.08 212.388,-1418.08 343.388,-1418.08 343.388,-1454.08"/>
<text text-anchor="start" x="243.888" y="-1439.28" font-family="Courier,monospace" font-size="11.00">«abstract»</text>
<text text-anchor="start" x="220.388" y="-1427.28" font-family="Courier,monospace" font-size="11.00">IntegrationMethod</text>
</g>
<!-- \\Elab\\Csmp\\RungeKutta&#45;&gt;\\Elab\\Csmp\\IntegrationMethod -->
<g id="edge20" class="edge"><title>\\Elab\\Csmp\\RungeKutta&#45;&gt;\\Elab\\Csmp\\IntegrationMethod</title>
<path fill="none" stroke="black" d="M458.222,-2725.7C445.246,-2695.66 420.091,-2633.91 407.388,-2579.08 306.327,-2142.9 283.72,-1593.98 279.665,-1464.39"/>
<polygon fill="none" stroke="black" points="283.155,-1464.03 279.356,-1454.14 276.159,-1464.24 283.155,-1464.03"/>
</g>
<!-- \\JsonSerializable -->
<g id="node57" class="node"><title>\\JsonSerializable</title>
<ellipse fill="none" stroke="black" cx="70.1938" cy="-725.079" rx="70.3881" ry="18"/>
<text text-anchor="middle" x="70.1938" y="-721.379" font-family="Times New Roman,serif" font-size="14.00" fill="gray">\JsonSerializable</text>
</g>
<!-- \\Elab\\Csmp\\Block&#45;&gt;\\JsonSerializable -->
<g id="edge27" class="edge"><title>\\Elab\\Csmp\\Block&#45;&gt;\\JsonSerializable</title>
<path fill="none" stroke="black" stroke-dasharray="1,5" d="M466.042,-1269.82C463.06,-1121.77 439.406,-121.14 343.388,-34.0792 292.354,12.194 241.015,10.3738 188.388,-34.0792 85.0633,-121.355 72.8146,-578.144 71.3802,-696.861"/>
<polygon fill="none" stroke="black" points="67.8793,-696.934 71.275,-706.97 74.8789,-697.007 67.8793,-696.934"/>
</g>
<!-- \\Elab\\Csmp\\IntegrationMethod&#45;&gt;\\JsonSerializable -->
<g id="edge28" class="edge"><title>\\Elab\\Csmp\\IntegrationMethod&#45;&gt;\\JsonSerializable</title>
<path fill="none" stroke="black" stroke-dasharray="1,5" d="M271.596,-1417.79C243.64,-1321.16 113.133,-870.046 79.2486,-752.921"/>
<polygon fill="none" stroke="black" points="82.5913,-751.882 76.4501,-743.248 75.8671,-753.827 82.5913,-751.882"/>
</g>
<!-- \\Elab\\Csmp\\Config -->
<g id="node54" class="node"><title>\\Elab\\Csmp\\Config</title>
<polygon fill="none" stroke="black" points="709.388,-201.079 652.388,-201.079 652.388,-165.079 709.388,-165.079 709.388,-201.079"/>
<text text-anchor="middle" x="680.888" y="-180.279" font-family="Courier,monospace" font-size="11.00">Config</text>
</g>
<!-- \\Elab\\Csmp\\IoTService -->
<g id="node55" class="node"><title>\\Elab\\Csmp\\IoTService</title>
<polygon fill="none" stroke="black" points="722.888,-147.079 638.888,-147.079 638.888,-111.079 722.888,-111.079 722.888,-147.079"/>
<text text-anchor="middle" x="680.888" y="-126.279" font-family="Courier,monospace" font-size="11.00">IoTService</text>
</g>
</g>
</svg>
